<svg xmlns="http://www.w3.org/2000/svg" width="118.426" height="118.424" viewBox="0 0 118.426 118.424">
  <path id="Icon_awesome-git-alt" data-name="Icon awesome-git-alt" d="M116.192,56.189,64.5,4.483a7.632,7.632,0,0,0-10.788,0L42.964,15.223,56.583,28.842a9.062,9.062,0,0,1,11.47,11.547L81.18,53.516C90.229,50.4,97.353,61.711,90.556,68.5c-7,7-18.56-.759-14.8-9.871L63.5,46.395v32.21c6.688,3.315,5.884,11.063,2.4,14.539a9.071,9.071,0,1,1-9.86-14.8V45.826a9.067,9.067,0,0,1-4.927-11.9L37.688,20.489,2.234,55.948a7.629,7.629,0,0,0,0,10.788l51.708,51.706a7.629,7.629,0,0,0,10.785,0l51.465-51.465a7.629,7.629,0,0,0,0-10.788Z" transform="translate(0 -2.25)"/>
</svg>
