<svg xmlns="http://www.w3.org/2000/svg" width="124.872" height="118.424" viewBox="0 0 124.872 118.424">
  <path id="Icon_simple-redux" data-name="Icon simple-redux" d="M86.547,83.577a8.659,8.659,0,0,0,7.8-9.127,8.985,8.985,0,0,0-8.887-8.575h-.317a8.9,8.9,0,0,0-8.575,9.2,9.5,9.5,0,0,0,2.57,6c-5.453,10.6-13.638,18.4-26.038,24.95a42.689,42.689,0,0,1-25.726,4.834c-7.17-1.009-12.78-4.215-16.214-9.356-5.141-7.8-5.609-16.214-1.327-24.633A36.765,36.765,0,0,1,20.755,64.163,51.824,51.824,0,0,1,18.57,56.14C-4.512,72.671-2.166,95.274,4.848,105.957c5.224,7.795,15.907,12.78,27.6,12.78a40.493,40.493,0,0,0,9.59-1.009c20.272-3.9,35.628-16.058,44.437-33.989l.073-.161Zm27.828-19.492C102.3,49.9,84.518,42.1,64.245,42.1H61.591A8.39,8.39,0,0,0,53.8,37.423h-.234A8.725,8.725,0,0,0,45,46.544a8.983,8.983,0,0,0,8.887,8.575h.385a8.8,8.8,0,0,0,7.795-5.458h2.888a60.377,60.377,0,0,1,33.76,10.365A42.737,42.737,0,0,1,115.551,80.3c2.8,6.7,2.649,13.253-.234,18.717-4.444,8.57-11.931,13.1-21.828,13.1a40.7,40.7,0,0,1-15.438-3.351c-1.868,1.551-4.99,4.126-7.254,5.687a50.057,50.057,0,0,0,20.5,4.907c15.2,0,26.5-8.57,30.794-16.838,4.673-9.356,4.288-25.1-7.644-38.588ZM33.769,86.376a8.972,8.972,0,0,0,8.887,8.575h.312a8.888,8.888,0,0,0-.234-17.77h-.317a3.353,3.353,0,0,0-1.171.151A58.231,58.231,0,0,1,33.066,42.1a42.321,42.321,0,0,1,9.35-24.638C47.095,11.614,55.9,8.726,61.909,8.575c16.838-.317,23.858,20.663,24.4,29L94.1,39.915C92.307,14.346,76.411.931,61.206.931,46.939.931,33.769,11.3,28.461,26.506c-7.248,20.272-2.492,39.759,6.395,55.354a6.9,6.9,0,0,0-1.088,4.517Z" transform="translate(0 -0.931)"/>
</svg>
