<svg xmlns="http://www.w3.org/2000/svg" width="118" height="118" viewBox="0 0 118 118">
  <path id="Icon_simple-typescript" data-name="Icon simple-typescript" d="M0,59v59H118V0H0Zm95.093-4.7a14.671,14.671,0,0,1,7.38,4.253,19.075,19.075,0,0,1,2.827,3.786c.039.148-5.094,3.589-8.2,5.521-.113.074-.565-.413-1.067-1.16a6.693,6.693,0,0,0-5.546-3.334c-3.579-.246-5.88,1.627-5.861,4.754a4.327,4.327,0,0,0,.5,2.212c.787,1.627,2.252,2.606,6.834,4.587,8.452,3.638,12.065,6.033,14.312,9.44,2.508,3.8,3.073,9.873,1.367,14.386-1.868,4.907-6.515,8.24-13.054,9.342A36.006,36.006,0,0,1,85.6,108a21.7,21.7,0,0,1-12.007-6.259c-1.087-1.195-3.206-4.327-3.073-4.548A7.772,7.772,0,0,1,71.6,96.5c.531-.3,2.512-1.445,4.386-2.532L79.38,92l.713,1.052a15.853,15.853,0,0,0,4.474,4.287c3.766,1.986,8.934,1.706,11.48-.58a5.119,5.119,0,0,0,.654-6.539c-.914-1.308-2.788-2.409-8.108-4.72-6.087-2.621-8.707-4.248-11.107-6.834a15.561,15.561,0,0,1-3.24-5.9,23.733,23.733,0,0,1-.206-7.527c1.254-5.885,5.693-9.981,12.1-11.2a29.866,29.866,0,0,1,8.953.261Zm-27.7,4.927.039,4.833H52.067V107.7H41.2V64.059H25.852V59.32a47.158,47.158,0,0,1,.128-4.868c.059-.079,9.406-.118,20.734-.1l20.625.059Z"/>
</svg>
