<svg xmlns="http://www.w3.org/2000/svg" width="107.241" height="118.424" viewBox="0 0 107.241 118.424">
  <path id="Icon_simple-webpack" data-name="Icon simple-webpack" d="M107.443,93.847,59.236,121V99.85L89.272,83.4l18.171,10.446Zm3.3-2.973V34.095L93.1,44.232V80.725ZM6.8,93.847,55,121V99.85L24.968,83.4,6.8,93.847ZM3.5,90.873V34.095L21.14,44.232V80.725L3.5,90.873ZM5.564,30.421,55,2.572V23.017L23.33,40.362l-.241.138L5.564,30.421Zm103.113,0L59.236,2.572V23.017L90.91,40.363l.241.138,17.525-10.079ZM55,95.04,25.372,78.82V46.677L55,63.713V95.04Zm4.231,0L88.868,78.82V46.677L59.236,63.713V95.04ZM27.379,42.957l29.747-16.29,29.748,16.29-29.748,17.1Z" transform="translate(-3.5 -2.572)"/>
</svg>
