<svg xmlns="http://www.w3.org/2000/svg" width="105.02" height="118" viewBox="0 0 105.02 118">
  <path id="Icon_simple-graphql" data-name="Icon simple-graphql" d="M64.574,13.526,88.838,27.538A10.511,10.511,0,1,1,98.942,45v28.02a10.524,10.524,0,1,1-10.35,17.223L64.476,104.165A10.523,10.523,0,1,1,44.4,104.5l-24.269-14a10.523,10.523,0,1,1-10.089-17.5l0-28.02a10.52,10.52,0,1,1,7.719-19.332,10.233,10.233,0,0,1,2.36,1.854L44.406,13.5a10.517,10.517,0,1,1,20.168.029Zm-2.532,4.312a3.9,3.9,0,0,1-.285.285L93.524,73.14c.128-.044.275-.079.4-.113V44.968a10.5,10.5,0,0,1-7.66-12.724c.03-.118.059-.241.093-.354L62.042,17.838Zm-14.824.29-.3-.3L22.606,31.855a10.5,10.5,0,0,1-7.183,13c-.128.039-.251.069-.374.1V73.027l.413.113L47.228,18.123l-.01,0Zm10.207,2.493a10.6,10.6,0,0,1-5.861,0L19.8,75.633a10.667,10.667,0,0,1,2.95,5.118H86.232A10.576,10.576,0,0,1,89.2,75.618ZM62.273,100.4,86.429,86.45c-.074-.231-.133-.462-.187-.7h-63.5l-.1.408,24.283,14.022a10.538,10.538,0,0,1,15.355.221Z" transform="translate(-1.98)"/>
</svg>
