<svg xmlns="http://www.w3.org/2000/svg" width="118" height="118" viewBox="0 0 118 118">
  <path id="Icon_simple-javascript" data-name="Icon simple-javascript" d="M0,0H118V118H0ZM108.334,89.857c-.86-5.384-4.366-9.907-14.765-14.126-3.619-1.7-7.64-2.876-8.835-5.6a5.806,5.806,0,0,1-.226-3.466c.738-3.176,4.5-4.13,7.449-3.245a8,8,0,0,1,4.8,4.425c5.084-3.324,5.084-3.324,8.629-5.531a20.293,20.293,0,0,0-2.881-3.835c-3.1-3.466-7.223-5.236-13.934-5.084l-3.466.438A15.849,15.849,0,0,0,76.7,58.769c-5.605,6.347-3.987,17.41,2.8,21.982,6.711,5.015,16.525,6.116,17.779,10.841,1.18,5.752-4.277,7.6-9.666,6.933-3.987-.885-6.195-2.881-8.629-6.569l-9,5.167c1.033,2.36,2.212,3.388,3.982,5.453,8.555,8.634,29.942,8.191,33.782-4.936a16.641,16.641,0,0,0,.364-8.113l.226.329ZM64.167,54.236H53.115c0,9.529-.044,19-.044,28.541,0,6.057.31,11.618-.679,13.329-1.623,3.388-5.8,2.955-7.7,2.36a9.487,9.487,0,0,1-4.081-4.2,4.218,4.218,0,0,0-.624-.964L31.014,98.83a17.391,17.391,0,0,0,6.51,7.459c4.2,2.507,9.853,3.319,15.768,1.991a13.81,13.81,0,0,0,8.9-6.937c2.507-4.573,1.976-10.177,1.952-16.451.059-10.1,0-20.2,0-30.38l.02-.275Z"/>
</svg>
