<svg xmlns="http://www.w3.org/2000/svg" width="104.994" height="118.424" viewBox="0 0 104.994 118.424">
  <path id="Icon_awesome-node-js" data-name="Icon awesome-node-js" d="M52.523,118.709a9.2,9.2,0,0,1-4.559-1.222l-14.5-8.577c-2.162-1.222-1.1-1.645-.4-1.88a28.562,28.562,0,0,0,6.556-2.984,1.06,1.06,0,0,1,1.081.094l11.139,6.6a1.36,1.36,0,0,0,1.339,0l43.4-25.05a1.391,1.391,0,0,0,.658-1.175v-50.1a1.4,1.4,0,0,0-.681-1.2L53.181,8.192a1.361,1.361,0,0,0-1.339,0L8.485,33.242a1.372,1.372,0,0,0-.681,1.2V84.518a1.3,1.3,0,0,0,.681,1.151l11.891,6.862c6.462,3.219,10.41-.564,10.41-4.394V38.694a1.244,1.244,0,0,1,1.269-1.245h5.5a1.259,1.259,0,0,1,1.269,1.245V88.16c0,8.6-4.7,13.536-12.854,13.536-2.514,0-4.488,0-9.987-2.726L4.608,92.413A9.138,9.138,0,0,1,.049,84.494V34.417A9.166,9.166,0,0,1,4.608,26.5L47.964,1.448a9.515,9.515,0,0,1,9.118,0l43.4,25.074a9.138,9.138,0,0,1,4.559,7.919V84.518a9.2,9.2,0,0,1-4.559,7.919l-43.4,25.05a9.139,9.139,0,0,1-4.559,1.222ZM87.56,69.337c0-9.376-6.345-11.867-19.669-13.63C54.4,53.922,53.04,53.005,53.04,49.856c0-2.608,1.151-6.086,11.139-6.086,8.906,0,12.2,1.927,13.559,7.943a1.258,1.258,0,0,0,1.222.987H84.6a1.227,1.227,0,0,0,.916-.4,1.308,1.308,0,0,0,.329-.963c-.869-10.363-7.755-15.18-21.666-15.18-12.384,0-19.763,5.217-19.763,13.982,0,9.494,7.355,12.126,19.222,13.3,14.217,1.386,15.321,3.478,15.321,6.274,0,4.841-3.9,6.909-13.042,6.909-11.491,0-14.006-2.89-14.851-8.6a1.244,1.244,0,0,0-1.245-1.057H44.2a1.239,1.239,0,0,0-1.245,1.245c0,7.308,3.971,16.026,22.982,16.026,13.724-.023,21.619-5.452,21.619-14.9Z" transform="translate(-0.049 -0.285)"/>
</svg>
