<svg xmlns="http://www.w3.org/2000/svg" width="60.512" height="59" viewBox="0 0 60.512 59">
  <path id="Icon_awesome-github" data-name="Icon awesome-github" d="M20.24,48.069c0,.244-.281.439-.634.439-.4.037-.683-.159-.683-.439,0-.244.281-.439.634-.439C19.923,47.593,20.24,47.789,20.24,48.069Zm-3.794-.549c-.085.244.159.525.525.6a.572.572,0,0,0,.756-.244c.073-.244-.159-.525-.525-.634A.626.626,0,0,0,16.446,47.52Zm5.392-.207c-.354.085-.6.317-.561.6.037.244.354.4.72.317s.6-.317.561-.561S22.192,47.276,21.838,47.313ZM29.866.563C12.944.563,0,13.409,0,30.33A30.587,30.587,0,0,0,20.679,59.513c1.562.281,2.111-.683,2.111-1.476,0-.756-.037-4.929-.037-7.491,0,0-8.54,1.83-10.333-3.636,0,0-1.391-3.55-3.392-4.465,0,0-2.794-1.915.2-1.879a6.44,6.44,0,0,1,4.709,3.148c2.672,4.709,7.149,3.355,8.894,2.55a6.781,6.781,0,0,1,1.952-4.111c-6.82-.756-13.7-1.745-13.7-13.481a9.246,9.246,0,0,1,2.879-7.186,11.527,11.527,0,0,1,.317-8.284c2.55-.793,8.418,3.294,8.418,3.294a28.821,28.821,0,0,1,15.323,0s5.868-4.1,8.418-3.294a11.521,11.521,0,0,1,.317,8.284C48.7,23.645,49.9,25.328,49.9,28.671c0,11.773-7.186,12.712-14.006,13.481,1.122.964,2.074,2.794,2.074,5.661,0,4.111-.037,9.2-.037,10.2,0,.793.561,1.757,2.111,1.476,12.2-4.05,20.472-15.628,20.472-29.158C60.512,13.409,46.787.563,29.866.563ZM11.858,42.64c-.159.122-.122.4.085.634.2.2.476.281.634.122.159-.122.122-.4-.085-.634C12.3,42.567,12.017,42.482,11.858,42.64Zm-1.318-.988c-.085.159.037.354.281.476a.363.363,0,0,0,.525-.085c.085-.159-.037-.354-.281-.476C10.821,41.493,10.626,41.53,10.541,41.652ZM14.494,46c-.2.159-.122.525.159.756.281.281.634.317.793.122.159-.159.085-.525-.159-.756C15.018,45.837,14.652,45.8,14.494,46ZM13.1,44.2c-.2.122-.2.439,0,.72s.525.4.683.281a.556.556,0,0,0,0-.756C13.615,44.165,13.3,44.043,13.1,44.2Z" transform="translate(0 -0.563)" fill="#d62828"/>
</svg>
