<svg xmlns="http://www.w3.org/2000/svg" width="132.658" height="118.03" viewBox="0 0 132.658 118.03">
  <path id="Icon_simple-react" data-name="Icon simple-react" d="M66.329,49.175A11.823,11.823,0,1,0,78.152,61,11.823,11.823,0,0,0,66.329,49.175ZM33.209,84.517,30.6,83.854C11.154,78.94,0,70.6,0,60.976S11.154,43.012,30.6,38.1l2.609-.658.735,2.587A130.061,130.061,0,0,0,41.478,59.8l.558,1.177-.558,1.177a128.825,128.825,0,0,0-7.534,19.777ZM29.389,44.139C14.609,48.29,5.538,54.641,5.538,60.976s9.071,12.68,23.851,16.837a137.909,137.909,0,0,1,6.533-16.837,136.813,136.813,0,0,1-6.533-16.837ZM99.45,84.517l-.735-2.592a129.1,129.1,0,0,0-7.539-19.772l-.558-1.177.558-1.177a129.453,129.453,0,0,0,7.539-19.777l.735-2.587,2.614.658c19.44,4.914,30.594,13.255,30.594,22.884S121.5,78.94,102.064,83.854ZM96.736,60.976a136.673,136.673,0,0,1,6.533,16.837C118.055,73.656,127.12,67.3,127.12,60.976s-9.071-12.68-23.851-16.837a137.014,137.014,0,0,1-6.533,16.837ZM29.351,44.112l-.735-2.581c-5.467-19.269-3.808-33.076,4.549-37.9,8.2-4.731,21.358.857,35.149,15.013l1.879,1.929L68.314,22.5A130.182,130.182,0,0,0,54.926,38.9l-.746,1.067-1.3.111A130.764,130.764,0,0,0,31.96,43.454ZM39.831,7.465a7.712,7.712,0,0,0-3.9.956C30.44,11.588,29.467,22.6,33.253,37.457a138.859,138.859,0,0,1,17.87-2.769A137.337,137.337,0,0,1,62.466,20.626c-8.623-8.4-16.787-13.161-22.635-13.161Zm53,112.55h0c-7.877,0-17.992-5.931-28.488-16.709l-1.879-1.929,1.879-1.929A130.059,130.059,0,0,0,77.727,83.041l.746-1.067,1.293-.111A130.614,130.614,0,0,0,100.7,78.5l2.609-.658.741,2.587c5.456,19.258,3.8,33.071-4.555,37.885a13.155,13.155,0,0,1-6.661,1.7Zm-22.64-18.688c8.623,8.4,16.787,13.161,22.635,13.161h.006a7.692,7.692,0,0,0,3.891-.956c5.494-3.167,6.473-14.183,2.681-29.041A138.292,138.292,0,0,1,81.53,87.259a136.38,136.38,0,0,1-11.337,14.067Zm33.115-57.214-2.609-.658a129.777,129.777,0,0,0-20.932-3.372l-1.293-.111L77.727,38.9A129.421,129.421,0,0,0,64.345,22.5l-1.879-1.929,1.879-1.929C78.13,4.5,91.286-1.092,99.494,3.634c8.357,4.82,10.016,18.627,4.555,37.891ZM81.53,34.687a137.845,137.845,0,0,1,17.876,2.769C103.2,22.6,102.219,11.588,96.725,8.421,91.263,5.265,81,10.1,70.193,20.626A137.351,137.351,0,0,1,81.53,34.687Zm-41.7,85.327a13.155,13.155,0,0,1-6.666-1.7C24.807,113.5,23.149,99.69,28.616,80.427l.73-2.587,2.609.658a130.466,130.466,0,0,0,20.921,3.366l1.3.111.741,1.067A130.427,130.427,0,0,0,68.3,99.447l1.879,1.929L68.3,103.305C57.811,114.084,47.7,120.014,39.831,120.014ZM33.253,84.49c-3.792,14.858-2.813,25.874,2.681,29.041,5.456,3.112,15.715-1.686,26.532-12.2A138.174,138.174,0,0,1,51.123,87.259a138.051,138.051,0,0,1-17.87-2.769Zm33.076,3.471c-4.549,0-9.225-.2-13.907-.586l-1.3-.111L50.377,86.2Q46.4,80.49,42.915,74.468T36.47,62.153l-.553-1.177L36.47,59.8q2.965-6.289,6.445-12.315c2.288-3.958,4.8-7.9,7.462-11.729l.746-1.067,1.3-.111a164.633,164.633,0,0,1,27.82,0l1.293.111.741,1.067A165.855,165.855,0,0,1,96.188,59.8l.558,1.177-.558,1.177A163.614,163.614,0,0,1,82.276,86.2l-.741,1.067-1.293.111C75.56,87.762,70.878,87.961,66.329,87.961ZM54.185,81.969a160.544,160.544,0,0,0,24.293,0A160.33,160.33,0,0,0,90.617,60.976,158,158,0,0,0,78.473,39.983a160.468,160.468,0,0,0-24.288,0A157.406,157.406,0,0,0,42.042,60.976,160.927,160.927,0,0,0,54.185,81.969Z" transform="translate(0 -1.986)"/>
</svg>
