<svg xmlns="http://www.w3.org/2000/svg" width="118" height="118" viewBox="0 0 118 118">
  <path id="Icon_simple-sass" data-name="Icon simple-sass" d="M59,0A59,59,0,1,1,0,59,59,59,0,0,1,59,0ZM47.274,78.657a15.078,15.078,0,0,1-.118,8.811l-.32.885c-.118.3-.256.59-.383.865A16.54,16.54,0,0,1,43.724,93.2c-3.432,3.732-8.221,5.148-10.276,3.958-2.212-1.288-1.111-6.564,2.871-10.768a40.14,40.14,0,0,1,10.423-7.419v-.015l.531-.3ZM96,25.257C93.338,14.77,75.958,11.323,59.511,17.169c-9.779,3.476-20.375,8.939-27.991,16.063-9.061,8.462-10.5,15.837-9.907,18.919,2.1,10.871,17,17.98,23.123,23.256v.03c-1.8.885-15.025,7.518-18.123,14.381-3.319,7.228.516,12.395,3.024,13.054,7.744,2.144,15.709-1.77,19.986-8.108,4.13-6.2,3.766-14.165,1.986-18.074a22.941,22.941,0,0,1,9-.511C70.938,77.359,73,83.849,72.555,86.5a7.09,7.09,0,0,1-3.314,4.641c-.738.447-.959.59-.89.89.074.443.447.443,1.033.369a8.18,8.18,0,0,0,5.61-7.232C75.215,78.829,69.163,71.754,58.4,71.9c-4.425.079-7.232.447-9.219,1.259a1.781,1.781,0,0,0-.516-.516C42.028,65.485,29.711,60.47,30.228,50.956c.147-3.466,1.4-12.606,23.6-23.669,18.216-9.076,32.75-6.564,35.257-1.032,3.6,7.886-7.749,22.568-26.7,24.7-7.227.811-10.989-1.986-11.952-3.024-1.028-1.106-1.175-1.18-1.544-.954-.59.3-.221,1.254,0,1.844.59,1.475,2.876,4.056,6.864,5.384,3.461,1.106,11.948,1.765,22.125-2.212,11.426-4.42,20.35-16.741,17.769-27.066l.359.329Z"/>
</svg>
